<svg width="323" height="229" viewBox="0 0 323 229" fill="none" xmlns="http://www.w3.org/2000/svg">
<rect width="323" height="229" fill="#6A9F69" fill-opacity="0.43"/>
<path d="M81.147 108.82H76.4808C76.3956 108.217 76.2216 107.68 75.9588 107.212C75.696 106.736 75.3587 106.331 74.9467 105.997C74.5348 105.663 74.0589 105.408 73.5192 105.23C72.9865 105.053 72.4077 104.964 71.7827 104.964C70.6534 104.964 69.6697 105.244 68.8317 105.805C67.9936 106.359 67.3438 107.169 66.8821 108.234C66.4205 109.293 66.1896 110.578 66.1896 112.091C66.1896 113.646 66.4205 114.953 66.8821 116.011C67.3509 117.07 68.0043 117.869 68.8423 118.408C69.6804 118.948 70.6499 119.218 71.7507 119.218C72.3686 119.218 72.9403 119.136 73.4659 118.973C73.9986 118.81 74.4709 118.572 74.8828 118.259C75.2947 117.94 75.6357 117.553 75.9055 117.098C76.1825 116.643 76.3743 116.125 76.4808 115.543L81.147 115.564C81.0263 116.565 80.7244 117.531 80.2415 118.462C79.7656 119.385 79.1229 120.212 78.3132 120.944C77.5107 121.668 76.5518 122.244 75.4368 122.67C74.3288 123.089 73.0753 123.298 71.6761 123.298C69.7301 123.298 67.9901 122.858 66.456 121.977C64.929 121.097 63.7216 119.822 62.8338 118.153C61.9531 116.484 61.5128 114.463 61.5128 112.091C61.5128 109.712 61.9602 107.688 62.8551 106.018C63.75 104.349 64.9645 103.078 66.4986 102.205C68.0327 101.324 69.7585 100.884 71.6761 100.884C72.9403 100.884 74.1122 101.061 75.1918 101.416C76.2784 101.771 77.2408 102.29 78.0788 102.972C78.9169 103.646 79.5987 104.474 80.1243 105.454C80.657 106.434 80.9979 107.556 81.147 108.82ZM91.0549 123V101.182H95.6678V119.197H105.022V123H91.0549ZM133.876 112.091C133.876 114.47 133.425 116.494 132.524 118.163C131.629 119.832 130.407 121.107 128.859 121.988C127.318 122.862 125.585 123.298 123.66 123.298C121.721 123.298 119.981 122.858 118.44 121.977C116.899 121.097 115.68 119.822 114.786 118.153C113.891 116.484 113.443 114.463 113.443 112.091C113.443 109.712 113.891 107.688 114.786 106.018C115.68 104.349 116.899 103.078 118.44 102.205C119.981 101.324 121.721 100.884 123.66 100.884C125.585 100.884 127.318 101.324 128.859 102.205C130.407 103.078 131.629 104.349 132.524 106.018C133.425 107.688 133.876 109.712 133.876 112.091ZM129.2 112.091C129.2 110.55 128.969 109.25 128.507 108.192C128.053 107.134 127.41 106.331 126.579 105.784C125.748 105.237 124.775 104.964 123.66 104.964C122.545 104.964 121.572 105.237 120.741 105.784C119.91 106.331 119.264 107.134 118.802 108.192C118.347 109.25 118.12 110.55 118.12 112.091C118.12 113.632 118.347 114.932 118.802 115.99C119.264 117.048 119.91 117.851 120.741 118.398C121.572 118.945 122.545 119.218 123.66 119.218C124.775 119.218 125.748 118.945 126.579 118.398C127.41 117.851 128.053 117.048 128.507 115.99C128.969 114.932 129.2 113.632 129.2 112.091ZM142.067 104.985V101.182H159.986V104.985H153.306V123H148.746V104.985H142.067ZM169.537 123V101.182H174.149V110.184H183.514V101.182H188.116V123H183.514V113.987H174.149V123H169.537ZM203.132 101.182V123H198.519V101.182H203.132ZM231.777 101.182V123H227.792L218.3 109.268H218.14V123H213.528V101.182H217.576L226.993 114.903H227.185V101.182H231.777ZM256.655 108.234C256.506 107.716 256.297 107.258 256.027 106.86C255.757 106.455 255.427 106.114 255.036 105.837C254.653 105.553 254.212 105.337 253.715 105.188C253.225 105.038 252.682 104.964 252.085 104.964C250.97 104.964 249.99 105.241 249.145 105.795C248.307 106.349 247.653 107.155 247.185 108.213C246.716 109.264 246.481 110.55 246.481 112.07C246.481 113.589 246.712 114.882 247.174 115.947C247.636 117.013 248.289 117.826 249.134 118.387C249.979 118.941 250.977 119.218 252.128 119.218C253.172 119.218 254.063 119.033 254.802 118.664C255.547 118.288 256.116 117.759 256.506 117.077C256.904 116.395 257.103 115.589 257.103 114.658L258.04 114.797H252.415V111.324H261.545V114.072C261.545 115.99 261.141 117.638 260.331 119.016C259.521 120.386 258.406 121.445 256.986 122.19C255.565 122.929 253.939 123.298 252.106 123.298C250.061 123.298 248.264 122.847 246.716 121.945C245.168 121.036 243.96 119.747 243.094 118.078C242.234 116.402 241.805 114.413 241.805 112.112C241.805 110.344 242.06 108.767 242.572 107.382C243.09 105.99 243.815 104.811 244.745 103.845C245.675 102.879 246.758 102.144 247.994 101.64C249.23 101.136 250.569 100.884 252.011 100.884C253.246 100.884 254.397 101.065 255.462 101.427C256.528 101.782 257.472 102.286 258.296 102.94C259.127 103.593 259.805 104.371 260.331 105.273C260.856 106.168 261.194 107.155 261.343 108.234H256.655Z" fill="#4A8549"/>
</svg>
