<svg width="201" height="24" viewBox="0 0 201 24" fill="none" xmlns="http://www.w3.org/2000/svg">
<path d="M20.147 8.82031H15.4808C15.3956 8.21662 15.2216 7.6804 14.9588 7.21165C14.696 6.73579 14.3587 6.33097 13.9467 5.99716C13.5348 5.66335 13.0589 5.40767 12.5192 5.23011C11.9865 5.05256 11.4077 4.96378 10.7827 4.96378C9.65341 4.96378 8.66974 5.24432 7.83168 5.8054C6.99361 6.35937 6.34375 7.16903 5.8821 8.23438C5.42045 9.29261 5.18963 10.5781 5.18963 12.0909C5.18963 13.6463 5.42045 14.9531 5.8821 16.0114C6.35085 17.0696 7.00426 17.8686 7.84233 18.4084C8.6804 18.9482 9.64986 19.218 10.7507 19.218C11.3686 19.218 11.9403 19.1364 12.4659 18.973C12.9986 18.8097 13.4709 18.5717 13.8828 18.2592C14.2947 17.9396 14.6357 17.5526 14.9055 17.098C15.1825 16.6435 15.3743 16.125 15.4808 15.5426L20.147 15.5639C20.0263 16.5653 19.7244 17.5312 19.2415 18.4616C18.7656 19.3849 18.1229 20.2124 17.3132 20.9439C16.5107 21.6683 15.5518 22.2436 14.4368 22.6697C13.3288 23.0888 12.0753 23.2983 10.6761 23.2983C8.73011 23.2983 6.99006 22.858 5.45597 21.9773C3.92898 21.0966 2.72159 19.8217 1.83381 18.1527C0.953125 16.4837 0.512784 14.4631 0.512784 12.0909C0.512784 9.71165 0.960227 7.6875 1.85511 6.01847C2.75 4.34943 3.96449 3.07812 5.49858 2.20455C7.03267 1.32386 8.75852 0.883522 10.6761 0.883522C11.9403 0.883522 13.1122 1.06108 14.1918 1.41619C15.2784 1.77131 16.2408 2.28977 17.0788 2.97159C17.9169 3.64631 18.5987 4.47372 19.1243 5.45383C19.657 6.43395 19.9979 7.55611 20.147 8.82031ZM30.0549 23V1.18182H34.6678V19.1967H44.0215V23H30.0549ZM72.8765 12.0909C72.8765 14.4702 72.4255 16.4943 71.5235 18.1634C70.6286 19.8324 69.407 21.1072 67.8587 21.9879C66.3175 22.8615 64.5846 23.2983 62.6599 23.2983C60.721 23.2983 58.9809 22.858 57.4397 21.9773C55.8985 21.0966 54.6805 19.8217 53.7856 18.1527C52.8907 16.4837 52.4433 14.4631 52.4433 12.0909C52.4433 9.71165 52.8907 7.6875 53.7856 6.01847C54.6805 4.34943 55.8985 3.07812 57.4397 2.20455C58.9809 1.32386 60.721 0.883522 62.6599 0.883522C64.5846 0.883522 66.3175 1.32386 67.8587 2.20455C69.407 3.07812 70.6286 4.34943 71.5235 6.01847C72.4255 7.6875 72.8765 9.71165 72.8765 12.0909ZM68.1996 12.0909C68.1996 10.5497 67.9688 9.25 67.5072 8.19176C67.0526 7.13352 66.4099 6.33097 65.5789 5.78409C64.7479 5.23722 63.7749 4.96378 62.6599 4.96378C61.5448 4.96378 60.5718 5.23722 59.7408 5.78409C58.9099 6.33097 58.2636 7.13352 57.8019 8.19176C57.3474 9.25 57.1201 10.5497 57.1201 12.0909C57.1201 13.6321 57.3474 14.9318 57.8019 15.9901C58.2636 17.0483 58.9099 17.8509 59.7408 18.3977C60.5718 18.9446 61.5448 19.218 62.6599 19.218C63.7749 19.218 64.7479 18.9446 65.5789 18.3977C66.4099 17.8509 67.0526 17.0483 67.5072 15.9901C67.9688 14.9318 68.1996 13.6321 68.1996 12.0909ZM81.0665 4.98508V1.18182H98.9855V4.98508H92.3059V23H87.7462V4.98508H81.0665ZM108.537 23V1.18182H113.149V10.1839H122.514V1.18182H127.116V23H122.514V13.9872H113.149V23H108.537ZM142.132 1.18182V23H137.519V1.18182H142.132ZM170.777 1.18182V23H166.792L157.3 9.26776H157.14V23H152.528V1.18182H156.576L165.993 14.9034H166.185V1.18182H170.777ZM195.655 8.23438C195.506 7.71591 195.297 7.25781 195.027 6.86008C194.757 6.45526 194.427 6.11435 194.036 5.83736C193.653 5.55327 193.212 5.33665 192.715 5.1875C192.225 5.03835 191.682 4.96378 191.085 4.96378C189.97 4.96378 188.99 5.24077 188.145 5.79474C187.307 6.34872 186.653 7.15483 186.185 8.21307C185.716 9.2642 185.481 10.5497 185.481 12.0696C185.481 13.5895 185.712 14.8821 186.174 15.9474C186.636 17.0128 187.289 17.826 188.134 18.3871C188.979 18.9411 189.977 19.218 191.128 19.218C192.172 19.218 193.063 19.0334 193.802 18.6641C194.547 18.2876 195.116 17.7585 195.506 17.0767C195.904 16.3949 196.103 15.5888 196.103 14.6584L197.04 14.7969H191.415V11.3239H200.545V14.0724C200.545 15.9901 200.141 17.6378 199.331 19.0156C198.521 20.3864 197.406 21.4446 195.986 22.1903C194.565 22.929 192.939 23.2983 191.106 23.2983C189.061 23.2983 187.264 22.8473 185.716 21.9453C184.168 21.0362 182.96 19.7472 182.094 18.0781C181.234 16.402 180.805 14.4134 180.805 12.1122C180.805 10.3437 181.06 8.76705 181.572 7.3821C182.09 5.99006 182.815 4.81108 183.745 3.84517C184.675 2.87926 185.758 2.14418 186.994 1.63991C188.23 1.13565 189.569 0.883522 191.011 0.883522C192.246 0.883522 193.397 1.06463 194.462 1.42685C195.528 1.78196 196.472 2.28622 197.296 2.93963C198.127 3.59304 198.805 4.37074 199.331 5.27273C199.856 6.16761 200.194 7.15483 200.343 8.23438H195.655Z" fill="#4A8549"/>
</svg>
